<?xml version="1.0" encoding="UTF-8"?>
<svg id="Ebene_1" xmlns="http://www.w3.org/2000/svg" version="1.1" viewBox="0 0 1000 1000">
  <!-- Generator: Adobe Illustrator 29.8.0, SVG Export Plug-In . SVG Version: 2.1.1 Build 160)  -->
  <defs>
    <style>
      .st0 {
        fill: #fff;
      }
    </style>
  </defs>
  <path class="st0" d="M380.9,535.9v204h-68v-476h68v204h34v-34h34v-34h34v-34h34v-34h34v-34h34v-34h68v68h-34v34h-34v34h-34v34h-34v34h-34v68h34v34h34v34h34v34h34v34h34v68h-68v-34h-34v-34h-34v-34h-34v-34h-34v-34h-34v-34h-34Z"/>
  <path class="st0" d="M500,888.7c-52.5,0-103.4-10.3-151.3-30.6-46.3-19.6-87.8-47.6-123.5-83.3s-63.7-77.2-83.3-123.5c-20.3-47.9-30.6-98.8-30.6-151.3s10.3-103.4,30.6-151.3c19.6-46.3,47.6-87.8,83.3-123.5s77.2-63.7,123.5-83.3c47.9-20.3,98.8-30.6,151.3-30.6s103.4,10.3,151.3,30.6c46.3,19.6,87.8,47.6,123.5,83.3s63.7,77.2,83.3,123.5c20.3,47.9,30.6,98.8,30.6,151.3s-10.3,103.4-30.6,151.3c-19.6,46.3-47.6,87.8-83.3,123.5s-77.2,63.7-123.5,83.3c-47.9,20.3-98.8,30.6-151.3,30.6ZM500,170.8c-44.5,0-87.6,8.7-128.1,25.9-39.2,16.6-74.4,40.3-104.6,70.6-30.2,30.2-54,65.4-70.6,104.6-17.2,40.6-25.9,83.7-25.9,128.1s8.7,87.6,25.9,128.1c16.6,39.2,40.3,74.4,70.6,104.6,30.2,30.2,65.4,54,104.6,70.6,40.6,17.2,83.7,25.9,128.1,25.9s87.6-8.7,128.1-25.9c39.2-16.6,74.4-40.3,104.6-70.6,30.2-30.2,54-65.4,70.6-104.6,17.2-40.6,25.9-83.7,25.9-128.1s-8.7-87.6-25.9-128.1c-16.6-39.2-40.3-74.4-70.6-104.6-30.2-30.2-65.4-54-104.6-70.6-40.5-17.2-83.6-25.9-128.1-25.9Z"/>
</svg>