<?xml version="1.0" encoding="UTF-8"?>
<svg id="Ebene_1" xmlns="http://www.w3.org/2000/svg" version="1.1" viewBox="0 0 524.4 524.4">
  <!-- Generator: Adobe Illustrator 29.8.0, SVG Export Plug-In . SVG Version: 2.1.1 Build 160)  -->
  <defs>
    <style>
      .st0 {
        fill: #f0f;
      }

      .st1 {
        fill: #fff;
      }
    </style>
  </defs>
  <g>
    <polygon class="st1" points="58.7 329.9 55.4 288.5 53.4 329.9 37.5 329.9 45.9 147 61.8 147 58.8 213.2 64 194.1 82.3 194.1 67.9 245.3 75.4 329.9 58.7 329.9"/>
    <path class="st0" d="M58.1,150.5l-4.2,93.7,12.8-46.6h11l-13.3,47.4,7.2,81.4h-9.7l-4.7-58.9-5.2,18.1-1.9,40.8h-8.9l8-175.9h8.9M65.4,143.5h-22.9l-.3,6.7-8,175.9-.3,7.3h45.4l-.7-7.6-7.1-80.1,13-46.2,2.5-8.9h-23.6l1.8-39.8.3-7.3h0Z"/>
  </g>
  <g>
    <polygon class="st1" points="69.5 329.9 77.9 147 93.7 147 85.3 329.9 69.5 329.9"/>
    <path class="st0" d="M90,150.5l-8,175.9h-8.8l8-175.9h8.8M97.3,143.5h-22.8l-.3,6.7-8,175.9-.3,7.3h22.8l.3-6.7,8-175.9.3-7.3h0Z"/>
  </g>
  <g>
    <path class="st1" d="M101.4,333.2c-10.8,0-17.5-21.7-17.5-56.6s1.7-85.9,23.1-85.9,16.2,23.1,16.2,55.1,0,15.7,0,18.8c0,1.8,0,3.4-.5,4.7,0,.3,0,.9,0,1.7v3.3h-23v2.5c0,17.4,2.1,21.4,2.8,22.3.5-.4,2-2.3,3-11.2l.3-3.1h16.2l-.5,3.9c-2.5,20.2-7.9,44.4-20,44.4ZM107.7,246c0-1.5,0-3,0-4.4,0-11.9-1.5-15.5-2.1-16.6-.9,1.2-3.1,5.7-4.6,21h6.8Z"/>
    <path class="st0" d="M107,194.2c11.9,0,12.7,17.3,12.7,51.6s0,22.2-.2,22.2,0,0,0,0c0,0-.2.4-.3,3h-23v6c0,18.3,2.2,25.9,6.1,25.9s5.6-5.5,6.6-14.4h9.1c-3.2,26.4-9.4,41.3-16.5,41.3s-14-18.3-14-53.1c0-49.7,7.7-82.4,19.6-82.4M97.1,249.5h14c0-2.9,0-5.5,0-7.9,0-16.5-2.7-20.4-5.7-20.4-4.5,0-7.1,12.3-8.4,28.3M107,187.2c-3.8,0-9.3,1.6-14,9.2-2.8,4.5-5.2,10.8-7.1,18.8-3.6,15.2-5.5,36.5-5.5,61.5s1.6,31.2,4.6,41.6c1.5,5.2,3.4,9.3,5.5,12.3,3.8,5.2,8,6.3,10.8,6.3,6.7,0,12.1-5.1,16.2-15.1,3.2-7.8,5.6-18.7,7.2-32.3l1-7.8h-22.6c0-1.1,0-2.3,0-3.5h22.7l.3-6.7c0-.4,0-.8,0-1,.2-.7.4-1.5.4-2.4,0-.6,0-1.6,0-3.1,0-3.1,0-9,0-18.9,0-16.8-.1-30.5-2-40-2.4-12.3-8.4-18.6-17.7-18.6h0Z"/>
  </g>
  <g>
    <path class="st1" d="M116,329.9l6.2-135.8h15.8l-6.2,135.8h-15.8ZM122.6,185.7l1.7-38.7h15.8l-1.7,38.7h-15.8Z"/>
    <path class="st0" d="M136.5,150.5l-1.4,31.7h-8.8l1.4-31.7h8.8M134.4,197.6l-5.9,128.8h-8.8l5.9-128.8h8.8M143.8,143.5h-22.8l-.3,6.7-1.4,31.7-.3,7.3h22.8l.3-6.7,1.4-31.7.3-7.3h0ZM141.7,190.6h-22.8l-.3,6.7-5.9,128.8-.3,7.3h22.8l.3-6.7,5.9-128.8.3-7.3h0Z"/>
  </g>
  <g>
    <path class="st1" d="M146.1,333.3c-10.1,0-15.2-19.3-15.2-57.4s1.8-38.2,4.8-54.1c5.2-27.9,11.5-31.1,15.8-31.1s4.8.4,6.4,1.2l2-44.9h15.7l-8.3,182.9h-14.7c-1.8,2.1-3.9,3.4-6.6,3.4ZM152.8,226.9c-1.8,1.3-6,11.3-6,44.6s1.2,24.5,2,26.4c2.4-4.3,6.5-19.9,6.5-45.3s-1.6-24.6-2.5-25.7Z"/>
    <path class="st0" d="M172,150.5l-8,175.9h-8.5l.7-15.7c-2.7,13.1-6.1,19.1-10.1,19.1-7.2,0-11.7-20.2-11.7-53.9s6.9-81.7,17.1-81.7,7.1,6.5,8.9,20.2l2.9-63.9h8.7M149.3,302.1c3.7,0,9.5-19.1,9.5-49.5s-2-29.3-5.9-29.3c-6.8,0-9.6,21.2-9.6,48.2s2.3,30.6,6,30.6M179.3,143.5h-22.7l-.3,6.7-1.7,37.2c-1.3-.2-2.4-.2-3.1-.2-8.3,0-12.2,9.3-13.4,12.3-2.2,5.3-4.1,12.5-5.8,21.6-3,16.1-4.8,37.1-4.8,54.8s1.1,31.2,3.3,41.1c1.1,4.9,4.3,19.8,15.4,19.8s5.9-1.3,8.1-3.4h16.5l.3-6.7,8-175.9.3-7.3h0ZM150.3,277.2c0-1.7,0-3.6,0-5.7,0-12.2.6-21.3,1.4-27.8,0,2.5.1,5.5.1,8.9,0,9.8-.6,18-1.5,24.6h0Z"/>
  </g>
  <g>
    <path class="st1" d="M179.3,333.3c-8.9,0-12.9-20.1-12.9-40.1s0-8.1,0-9.9c0-.9,0-1.6,0-2,0-.9.2-1.6.4-2.1l3.9-85h15.8l-3.9,83.3c0,1.3,0,2.6-.1,3.8,0,1.8-.2,3.4-.2,4.9,0,6.6.6,9.6,1,10.9,1.7-3.1,4.4-11.8,5-25.1l3.6-77.6h15.7l-6.2,135.8h-15.1v-.4c-1.9,2.2-4.2,3.6-7,3.6Z"/>
    <path class="st0" d="M182.9,197.7l-3.7,79.6c-.1,3.4-.3,6.3-.3,8.9,0,12,1.7,15.2,4.8,15.2s7.4-12.3,8.2-29.3l3.4-74.3h8.7l-5.9,128.8h-8.3v-.2l.8-18.1c-3,14.7-6.7,21.5-11.3,21.5s-9.4-14.4-9.4-36.6,0-12.4,0-12.4,0,2.3.2,2.3,0-.2,0-.6l3.9-84.8h8.8M190.2,190.7h-22.8l-.3,6.7-3.7,81c-.3.8-.5,1.8-.5,2.8,0,.4,0,1,0,2,0,1.9,0,5,0,10,0,10.2,1.2,43.6,16.4,43.6s5.9-1.2,8.1-3.2h17.4l.3-6.7,5.9-128.8.3-7.3h-21.1,0Z"/>
  </g>
  <g>
    <path class="st1" d="M198.9,329.9l6.2-135.8h15.4,0c1.9-2.1,4.3-3.4,7.2-3.4,5.8,0,12.8,6.3,12.8,36.5s0,7.7,0,9.5c0,1.3,0,2.6-.3,3.7l-4.1,89.4h-15.9l.2-3.5v-3.5h.2l3.4-74.6c.2-4.1.3-7.8.3-10.8,0-7-.6-9.6-1-10.5-1.4,2-4.2,9.2-5,25.9l-3.6,77.1h-15.8Z"/>
    <path class="st0" d="M227.8,194.2c5.4,0,9.3,11.5,9.3,33s0,11.9,0,11.9,0-2.5-.1-2.5,0,.2,0,.5l-4.1,89.2h-8.9l3.6-77.9c.2-4.2.3-7.9.3-11,0-11.5-1.5-14.4-4.8-14.4s-7.3,9.9-8.2,29.6l-3.4,73.8h-8.8l5.9-128.8h8.4l-.9,18.8c2.7-14.4,6.4-22.2,11.8-22.2M223.9,326.3h0c0,0,0,0,0,0h0M227.8,187.2c-2.5,0-5.6.7-8.6,3.4h-17.4l-.3,6.7-5.9,128.8-.3,7.3h22.8c0-.1,5.8-.1,5.8-.1h15.6l.3-6.7,3.9-85.5c.2-.8.4-1.6.4-2.6,0-.4,0-1,0-1.9,0-1.8,0-4.7,0-9.5,0-11.1-1-20-2.9-26.6-3.3-11.1-9.1-13.4-13.4-13.4h0Z"/>
  </g>
  <g>
    <path class="st1" d="M249,390.8c-11.5,0-17.4-16-17.4-47.5s0-9.2,0-11.4c0-1.1,0-1.9,0-2.3,0-3.9,2.9-4.1,3.5-4.1,3.1,0,3.5,2.6,3.5,4.5h7.7c-7.8-4.2-11.6-22.1-11.6-54.1s6.7-85.2,21.5-85.2,7.1,1.3,8.7,3.4h13l-6.2,133.8c-1.8,39.5-10.4,63-22.8,63ZM247.1,338.4c0,12.9,2.1,15.6,2.7,16,1.6-1.3,5.5-8.7,6.2-24.3v-1.6c-1.6,1.5-3.5,2.3-5.6,2.3s-2.3-.2-3.3-.7v8.2ZM256.9,227.5c-1.9,1.8-5.8,12.1-5.8,43.7s1.1,23.9,1.9,25.7c2.2-3.6,6.6-17.7,6.6-44.3s-1.9-23.8-2.7-25.1Z"/>
    <path class="st0" d="M256.3,194.1c9.2,0,7,6.3,8.5,19.4l.7-16h8.8l-6,130.1c-1.8,38.7-10,59.7-19.3,59.7s-13.9-16.5-13.9-44,0-14.4,0-14.4.1,4.9.2,4.9,0-.1,0-.4h8.2v5c0,13.9,2.3,19.6,6.3,19.6s8.8-10.7,9.6-27.7l1-21.2h0c-1.8,11.5-5.7,18.3-10,18.3-9,0-12.1-24.3-12.1-51.6,0-48.4,8.8-81.7,18-81.7M253.6,300.8c3.6,0,9.5-17.5,9.5-48.2s-2-28.8-6-28.8c-6.4,0-9.5,19.6-9.5,47.4s2.4,29.6,6,29.6M256.3,187.1c-8.6,0-14.9,9.2-19.3,28.1-3.7,15.9-5.7,37.4-5.7,60.6s.9,28.1,2.8,37.4c.4,1.9,1.1,5.3,2.4,8.8-.5,0-.9-.1-1.3-.1-2.4,0-6.9,1.6-7,7.6,0,.5,0,1.2,0,2.4,0,2.2,0,5.8,0,11.4,0,14.6,1.3,26.2,3.8,34.4,4.2,13.8,11.6,16.6,17.1,16.6,20.2,0,25.1-41.6,26.3-66.4l6-130.1.3-7.3h-15.1c-2.4-2.3-5.9-3.4-10.2-3.4h0ZM254.6,276.9c0-1.7,0-3.6,0-5.7,0-12.2.6-20.9,1.4-27.1,0,2.4.1,5.2.1,8.5,0,10-.6,18-1.5,24.3h0ZM250.6,334.4c.5,0,1,0,1.6-.1-.3,3.6-.9,6.7-1.5,9.2,0-1.4-.1-3.1-.1-5v-4h0Z"/>
  </g>
  <g>
    <path class="st1" d="M287,333.3c-15.4,0-17.4-22.1-17.4-41.4v-9.3c0-2.9,0-6,3.5-6s3.5,1.5,3.5,4.5c0,.1,0,.2,0,.4h9.2v7.4c0,10.2,2.3,11.7,2.4,11.7h0c.9,0,3.2-2.7,3.2-11.2s-.7-8.2-2.6-9.9c-.3-.3-.6-.5-1-.8-12.3-10.9-14.7-24.3-14.7-45.3,0-35.4,10.7-42.8,19.7-42.8,15.8,0,15.8,18,15.8,38.8v9c0,2.8,0,5.8-3.4,5.9h-1.5s-1.1-1-1.1-1c-1-1-1.1-1.9-1.1-3.3h-8.8v-3.5c0-10.5-1-12.9-1.4-13.5,0,0-.1,0-.2,0-2.3,0-2.5,6.2-2.5,8.8,0,6.6.8,7.5,2.9,9.7.3.3.6.6.9,1,1,1.2,2,2.2,2.9,3.1,8.3,8.8,11.7,13.4,11.7,38.5s-7.4,49-20.3,49Z"/>
    <path class="st0" d="M292.9,194.2c11.7,0,12.3,13.1,12.3,35.3s0,11.4,0,11.4,0-4.5,0-4.5c0,0,0,0,0,.2h-8.7c0-13.3-1.3-17-5.1-17s-6,3.4-6,12.3,1.7,9.7,4.8,13.1c9.5,10.5,13.7,11.5,13.7,39.3s-6.2,45.5-16.8,45.5-13.9-14.7-13.9-37.9,0-11.7,0-11.7,0,5.1,0,5.1,0,0,0-.2h9.1v3.9c0,10.5,2.4,15.2,5.9,15.2s6.7-4.4,6.7-14.7-1.6-10.5-4.7-13.3c-10.6-9.4-13.5-20.4-13.5-42.7s4.5-39.3,16.2-39.3M292.9,187.2c-4.9,0-14,2.1-19.1,15.9-2.7,7.5-4.1,17.7-4.1,30.4,0,19.9,2.1,33.4,12.4,44.6h-2.4c-1-3.2-3.9-4.9-6.7-4.9s-7,1.4-7,7.5v1.9s0,9.3,0,9.3c0,13.4,1.1,22.9,3.3,29.8,2.2,6.9,7.1,15.1,17.6,15.1s13.6-2.2,19-16.9c3.2-8.7,4.8-21,4.8-35.6,0-23.3-3-30.1-9.7-37.8,1.2.9,2.7,1.4,4.1,1.4s5-.9,6.4-4.3h.2v-.6c.3-.8.4-1.6.4-2.6v-1.9s0-9,0-9c0-11.5-.1-20.8-2-27.8-1.8-6.6-6.2-14.5-17.3-14.5h0ZM298.4,243.6h.4c.1.3.3.6.4.9-.3-.3-.5-.6-.8-.9h0Z"/>
  </g>
  <g>
    <path class="st1" d="M320.5,329.8l3.7-81.2c.2-5.2.3-9.3.3-12.6,0-5.1-.3-7.6-.6-8.8-1.1,2.3-2.8,8.4-3.3,21l-3.8,81.6h-15.8l6.2-135.8h14.6c1.9-2.2,4.1-3.4,6.9-3.4,4.5,0,7.2,3.2,8.9,8.3,2.1-4.8,5-8.3,9.3-8.3,11.8,0,13.1,27,13.1,38.6v8.5c0,1.2,0,2.6-.4,3.6l-4.1,88.4h-15.6l3.9-81.5v-.6c.1-2.8.2-5.4.2-7.6,0-6-.4-9.7-.8-11.8-1.3,4-2.9,11.3-3.3,21.4l-3.7,80.3h-15.8Z"/>
    <path class="st0" d="M347,194c6,0,9.6,14.9,9.6,35.1s0,10.7,0,10.7,0-3.2-.1-3.2,0,.1,0,.3l-4.1,89.2h-8.6l3.7-77.8c.1-3.1.2-6,.2-8.4,0-12.8-1.7-18.1-4.3-18.1s-6.2,11.8-6.8,27.5l-3.5,76.9h-8.8l3.5-77.5c.2-5.2.3-9.4.3-12.8,0-11.3-1.4-13.1-4.4-13.1s-5.8,8.4-6.5,25.1l-3.6,78.2h-8.8l5.9-128.8h8.3l-.9,18.8c3-17,6.4-22.2,10.8-22.2s6.4,5.5,8.3,20.4c2.5-14.1,5.8-20.4,9.9-20.4M347,187c-2.6,0-6,.9-9.1,4.5-2.8-3.7-6.3-4.5-9.1-4.5s-5.5.7-8.4,3.4h-16.5l-.3,6.7-5.9,128.8-.3,7.3h19.5,0c0,0,7.3,0,7.3,0h15.5c0-.1,4-.1,4-.1h15.3l.3-6.7,3.9-84.4c.3-.8.4-1.7.4-2.7,0-.4,0-.9,0-1.7,0-1.6,0-4.3,0-8.6,0-19.2-2.9-42.1-16.6-42.1h0Z"/>
  </g>
  <g>
    <path class="st1" d="M366.1,333.3c-6,0-13.2-5.7-13.2-32.8s6.8-48.6,19.5-55.2c3.9-2,4.4-4.2,4.4-11.6s-.9-9.3-1.2-9.7c-1.1,1.3-3,6.2-3.7,15.7l-.2,3.3h-15.2l.2-3.7c1.1-20.9,4.4-48.6,20.1-48.6s15.7,21,15.7,39.6,0,9.5,0,11.5c0,1.2,0,2.5-.3,3.6l-3.8,84.5h-14.9c-2.6,2.6-5.1,3.4-7.3,3.4ZM375.1,273.8c-4.7,3.3-6.1,8-6.1,20.1s.2,6.5.4,7.6c1.9-2.3,4.9-11.1,5.5-24.3l.2-3.4Z"/>
    <path class="st0" d="M376.8,194.2c10.6,0,12.2,12.8,12.2,36.1s0,14.1,0,14.1,0-.7-.1-.7,0,.3-.1,1.3l-3.7,81.4h-8.2.1c0-1.6-.1-3.4-.1-5.5s0-3.9.1-6c-2.5,8.9-6.3,14.9-10.8,14.9-6.6,0-9.7-11.8-9.7-29.3,0-38.2,7-46.6,17.6-52.1,6-3.1,6.3-7.6,6.3-14.7,0-11-1.9-13.3-5.1-13.3s-6,7.6-6.8,19.1h-8.2c1.4-26.7,6-45.3,16.6-45.3M379.1,263.3c-1,3.4-2.6,5.2-6,7.6-6.3,4.4-7.6,11-7.6,23s1.4,11.5,3.4,11.5.3,0,.5,0c4.3,0,8.3-12.8,9-28l.7-14.1M376.8,187.2c-5.8,0-13.6,3-18.4,17.4-2.7,8.2-4.4,19.4-5.2,34.5l-.4,7.4h11.2c-9.6,7.8-14.7,21.3-14.7,54s.9,17.6,2.7,23.3c1.5,4.9,5.3,13,14,13s6.3-1.3,8.6-3.4h17l.3-6.7,3.7-80.5c.2-.6.3-1.4.3-2.2,0-.4,0-1.1,0-2.2,0-2.1,0-5.8,0-11.6,0-12.1-.4-21.7-2.4-28.7-1.9-6.6-6.3-14.4-16.8-14.4h0Z"/>
  </g>
  <g>
    <path class="st1" d="M385.8,329.8l6-135.7h14.3c2-2.4,4.4-3.4,7.4-3.4h4.9l-2,44.4-5.1-3.2c-.4-.2-.6-.3-.6-.3,0,0-4.7.8-6,27.8l-3.1,70.3h-15.8Z"/>
    <path class="st0" d="M414.8,194.2l-1.6,34.8c-.8-.5-1.6-.8-2.4-.8-5.4,0-8.5,10.5-9.5,31.1l-3,67h-8.8l5.7-128.7h8.3l-.7,15.4c3.7-17.3,7.2-18.8,10.8-18.8h1.2M422.1,187.2h-8.5c-3.7,0-6.6,1.2-8.9,3.4h-16.2l-.3,6.7-5.7,128.7-.3,7.3h22.8l.3-6.7,3-67c.7-14.4,2.3-20.7,3.4-23.3l7.9,5,.6-12,1.6-34.8.3-7.3h0Z"/>
  </g>
  <g>
    <polygon class="st1" points="427.8 329.9 427.4 326.7 424.4 288.5 422.4 329.9 406.5 329.9 414.9 147 430.8 147 427.8 213.2 433 194.1 451.3 194.1 436.9 245.3 444.4 329.9 427.8 329.9"/>
    <path class="st0" d="M427.1,150.5l-4.2,93.7,12.8-46.6h11l-13.3,47.4,7.2,81.4h-9.7l-4.7-58.9-5.2,18.1-1.9,40.8h-8.9l8-175.9h8.9M434.4,143.5h-22.9l-.3,6.7-8,175.9-.3,7.3h45.4l-.7-7.6-7.1-80.1,13-46.2,2.5-8.9h-23.6l1.8-39.8.3-7.3h0Z"/>
  </g>
  <g>
    <path class="st1" d="M456.8,333.2c-10.8,0-17.5-21.7-17.5-56.6s1.7-85.9,23.1-85.9,16.2,23.1,16.2,55.1,0,15.7,0,18.8c0,1.8,0,3.4-.5,4.7,0,.3,0,.9,0,1.7v3.3h-23v2.5c0,17.4,2.1,21.4,2.8,22.3.5-.4,2-2.3,3-11.2l.3-3.1h16.2l-.5,3.9c-2.5,20.2-7.9,44.4-20,44.4ZM463.1,246c0-1.5,0-3,0-4.4,0-11.9-1.5-15.5-2.1-16.6-.9,1.2-3.1,5.7-4.6,21h6.8Z"/>
    <path class="st0" d="M462.4,194.2c11.9,0,12.7,17.3,12.7,51.6s0,22.2-.2,22.2,0,0,0,0c0,0-.2.4-.3,3h-23v6c0,18.3,2.2,25.9,6.1,25.9s5.6-5.5,6.6-14.4h9.1c-3.2,26.4-9.4,41.3-16.5,41.3s-14-18.3-14-53.1c0-49.7,7.7-82.4,19.6-82.4M452.5,249.5h14c.1-2.9.1-5.5.1-7.9,0-16.5-2.7-20.4-5.7-20.4-4.5,0-7.1,12.3-8.4,28.3M462.4,187.2c-3.8,0-9.3,1.6-14,9.2-2.8,4.5-5.2,10.8-7.1,18.8-3.6,15.2-5.5,36.5-5.5,61.5s1.6,31.2,4.6,41.6c1.5,5.2,3.4,9.3,5.5,12.3,3.8,5.2,8,6.3,10.8,6.3,6.7,0,12.1-5.1,16.2-15.1,3.2-7.8,5.6-18.7,7.2-32.3l1-7.8h-22.6c0-1.1,0-2.3,0-3.5h22.7l.3-6.7c0-.4,0-.8,0-1,.2-.7.4-1.5.4-2.4,0-.6,0-1.6,0-3.1,0-3.1,0-9,0-18.9,0-16.8-.1-30.5-2-40-2.4-12.3-8.4-18.6-17.7-18.6h0Z"/>
  </g>
</svg>